<?xml version="1.0" encoding="UTF-8"?><svg id="Layer_1" xmlns="http://www.w3.org/2000/svg" width="51" height="50" viewBox="0 0 51 50"><defs><style>.cls-1{fill:none;}.cls-2{fill:#11468c;}</style></defs><path class="cls-2" d="M26,.5c13.51,0,24.5,10.99,24.5,24.5s-10.99,24.5-24.5,24.5h-1C11.49,49.5.5,38.51.5,25S11.49.5,25,.5h1M26,0h-1C11.19,0,0,11.19,0,25h0c0,13.81,11.19,25,25,25h1c13.81,0,25-11.19,25-25h0C51,11.19,39.81,0,26,0h0Z"/><rect class="cls-1" x="4.19" y="13.71" width="45.81" height="35.29"/><path class="cls-2" d="M13.05,14.25h.49l8.34,19.17h-.59l-2.98-6.86h-10.04l-2.99,6.86h-.59L13.05,14.25ZM18.07,26.02l-4.78-10.99-4.79,10.99h9.57Z"/><path class="cls-2" d="M24.25,33.42v-1.73h.54v1.73h-.54Z"/><path class="cls-2" d="M43.72,14.25v19.17h-.54v-9.53h-13.31v9.53h-.54V14.25h.54v9.1h13.31v-9.1h.54Z"/></svg>