<?xml version="1.0" encoding="UTF-8"?><svg id="Layer_1" xmlns="http://www.w3.org/2000/svg" width="110" height="110" viewBox="0 0 110 110"><defs><style>.cls-1{fill:#e0e0e0;}.cls-2{fill:none;stroke:#11468c;stroke-miterlimit:10;}.cls-3{fill:#11468c;}</style></defs><path class="cls-3" d="M55,106c-28.12,0-51-22.88-51-51S26.88,4,55,4s51,22.88,51,51-22.88,51-51,51Z"/><path class="cls-3" d="M55,4.5c27.85,0,50.5,22.65,50.5,50.5s-22.65,50.5-50.5,50.5S4.5,82.85,4.5,55,27.15,4.5,55,4.5M55,3.5h0C26.56,3.5,3.5,26.56,3.5,55h0c0,28.44,23.06,51.5,51.5,51.5h0c28.44,0,51.5-23.06,51.5-51.5h0c0-28.44-23.06-51.5-51.5-51.5h0Z"/><path class="cls-2" d="M-35.59,109.74s14.93,32.39,47.03,14.14"/><path class="cls-1" d="M52.31,77.54c.15,0,.23.16.23.49s-.08.47-.23.47h0c-.7,0-1.78-.05-3.26-.15h0c-1.47-.11-2.54-.17-3.2-.17h0c-.81,0-1.84.06-3.09.17h0c-1.18.1-2.08.15-2.7.15h0c-.15,0-.22-.16-.22-.47s.07-.49.22-.49h0c1.36,0,2.36-.19,2.98-.57.63-.37.94-1.02.94-1.94h0c0-.75-.24-1.91-.72-3.49h0l-4.91-15.28h-13.13l-3.48,11.98c-.51,1.83-.77,3.31-.77,4.45h0c0,1.66.45,2.89,1.35,3.68.9.78,2.25,1.17,4.05,1.17h0c.18,0,.28.16.28.49,0,.32-.09.47-.28.47h0c-.66,0-1.61-.05-2.86-.15h0c-1.4-.11-2.62-.17-3.65-.17h0c-.96,0-2.06.06-3.31.17h0c-1.1.1-2.02.15-2.76.15h0c-.18,0-.28-.16-.28-.47s.09-.49.28-.49h0c1.03,0,1.9-.28,2.63-.85.72-.57,1.4-1.57,2.04-3,.65-1.43,1.35-3.49,2.12-6.18h0l11.65-40.27c.08-.16.21-.24.39-.24s.3.08.33.24h0l13.02,40.19c1.26,3.99,2.33,6.67,3.21,8.04.88,1.38,1.93,2.06,3.14,2.06h0ZM31.38,34.68l-5.74,19.96h12.2l-6.46-19.96ZM92.34,77.54c.11,0,.16.16.16.49s-.05.47-.16.47h0c-1.14,0-2.05-.03-2.71-.08h0l-3.81-.07-4.08.07c-.63.06-1.49.08-2.6.08h0c-.11,0-.16-.16-.16-.47s.05-.49.16-.49h0c1.43,0,2.48-.13,3.15-.4.66-.27,1.11-.79,1.35-1.58.24-.78.36-1.98.36-3.61h0v-18.92h-21.2v18.92c0,1.63.12,2.83.35,3.61.24.78.69,1.31,1.35,1.58.67.27,1.72.4,3.15.4h0c.08,0,.11.16.11.49s-.04.47-.11.47h0c-1.14,0-2.04-.03-2.7-.08h0l-3.98-.07-3.81.07c-.66.06-1.58.08-2.76.08h0c-.08,0-.11-.16-.11-.47s.04-.49.11-.49h0c1.4,0,2.44-.13,3.12-.4.68-.27,1.14-.79,1.38-1.58.23-.78.35-1.98.35-3.61h0v-37.43c0-1.62-.12-2.8-.35-3.55-.24-.75-.69-1.28-1.36-1.58-.66-.3-1.69-.45-3.08-.45h0c-.08,0-.11-.16-.11-.49s.04-.49.11-.49h0l2.81.08c1.55.11,2.78.17,3.7.17h0c1.07,0,2.41-.06,4.03-.17h0l2.66-.08c.08,0,.11.16.11.49s-.04.49-.11.49h0c-1.4,0-2.44.16-3.12.49-.68.32-1.14.87-1.38,1.66-.23.78-.35,1.98-.35,3.6h0v16.65h21.2v-16.65c0-1.62-.12-2.82-.36-3.6-.24-.79-.69-1.34-1.35-1.66-.67-.33-1.72-.49-3.15-.49h0c-.11,0-.16-.16-.16-.49s.05-.49.16-.49h0l2.6.08c1.62.11,2.98.17,4.08.17h0c1,0,2.27-.06,3.81-.17h0l2.71-.08c.11,0,.16.16.16.49s-.05.49-.16.49h0c-1.4,0-2.43.15-3.09.45-.67.3-1.12.82-1.35,1.58-.24.75-.36,1.94-.36,3.55h0v37.43c0,1.63.12,2.83.36,3.61.23.78.69,1.31,1.35,1.58.66.27,1.69.4,3.09.4h0Z"/></svg>