<?xml version="1.0" encoding="UTF-8"?><svg id="Layer_1" xmlns="http://www.w3.org/2000/svg" width="50" height="50" viewBox="0 0 50 50"><defs><style>.cls-1{fill:#11468c;}</style></defs><path class="cls-1" d="M25,1c13.23,0,24,10.77,24,24s-10.77,24-24,24S1,38.23,1,25,11.77,1,25,1M25,0C11.19,0,0,11.19,0,25s11.19,25,25,25,25-11.19,25-25S38.81,0,25,0h0Z"/><path class="cls-1" d="M25.12,38.96c.06,0,.08.09.08.27s-.03.26-.08.26h0c-.25,0-.65-.03-1.18-.09h0c-.54-.06-.92-.09-1.16-.09h0c-.3,0-.67.03-1.13.09h0c-.43.06-.76.09-.98.09h0c-.05,0-.08-.09-.08-.26s.03-.27.08-.27h0c.5,0,.86-.11,1.08-.32.23-.21.34-.57.34-1.08h0c0-.42-.09-1.07-.26-1.95h0l-1.79-8.53h-4.78l-1.27,6.69c-.19,1.02-.28,1.85-.28,2.48h0c0,.93.16,1.61.49,2.05.33.44.82.65,1.48.65h0c.07,0,.1.09.1.27,0,.18-.03.26-.1.26h0c-.24,0-.59-.03-1.04-.09h0c-.51-.06-.95-.09-1.33-.09h0c-.35,0-.75.03-1.21.09h0c-.4.06-.74.09-1,.09h0c-.07,0-.1-.09-.1-.26s.03-.27.1-.27h0c.37,0,.69-.16.96-.47.26-.32.51-.87.74-1.67.24-.8.49-1.95.77-3.45h0l4.24-22.48c.03-.09.08-.13.14-.13s.11.04.12.13h0l4.74,22.44c.46,2.23.85,3.72,1.17,4.49.32.77.7,1.15,1.14,1.15h0ZM17.51,15.04l-2.09,11.14h4.44l-2.35-11.14ZM39.69,38.96s.06.09.06.27-.02.26-.06.26h0c-.42,0-.74-.02-.99-.05h0l-1.39-.04-1.49.04c-.23.03-.54.05-.95.05h0s-.06-.09-.06-.26.02-.27.06-.27h0c.52,0,.9-.08,1.15-.23.24-.15.4-.44.49-.88.09-.44.13-1.11.13-2.02h0v-10.56h-7.71v10.56c0,.91.04,1.58.13,2.02.09.44.25.73.49.88.24.15.62.23,1.15.23h0s.04.09.04.27-.01.26-.04.26h0c-.42,0-.74-.02-.98-.05h0l-1.45-.04-1.39.04c-.24.03-.57.05-1,.05h0s-.04-.09-.04-.26.01-.27.04-.27h0c.51,0,.89-.08,1.14-.23.25-.15.41-.44.5-.88.09-.44.13-1.11.13-2.02h0V14.95c0-.9-.04-1.56-.13-1.98-.09-.42-.25-.71-.5-.88-.24-.17-.61-.25-1.12-.25h0s-.04-.09-.04-.27.01-.27.04-.27h0l1.02.05c.56.06,1.01.09,1.35.09h0c.39,0,.88-.03,1.47-.09h0l.97-.05s.04.09.04.27-.01.27-.04.27h0c-.51,0-.89.09-1.14.27-.25.18-.41.49-.5.93-.09.44-.13,1.11-.13,2.01h0v9.29h7.71v-9.29c0-.9-.04-1.57-.13-2.01-.09-.44-.25-.75-.49-.93-.24-.18-.62-.27-1.15-.27h0s-.06-.09-.06-.27.02-.27.06-.27h0l.95.05c.59.06,1.08.09,1.49.09h0c.36,0,.82-.03,1.39-.09h0l.99-.05s.06.09.06.27-.02.27-.06.27h0c-.51,0-.89.08-1.13.25-.24.17-.41.46-.49.88-.09.42-.13,1.08-.13,1.98h0v20.9c0,.91.04,1.58.13,2.02.09.44.25.73.49.88.24.15.62.23,1.13.23h0Z"/></svg>