<svg xmlns="http://www.w3.org/2000/svg" width="256" height="256" viewBox="0 0 100 100"><rect width="100" height="100" rx="50" fill="#11468c"></rect><path fill="#fff" d="M49.27 67.78Q49.51 67.78 49.51 68.13Q49.51 68.47 49.27 68.47L49.27 68.47Q48.17 68.47 45.85 68.36L45.85 68.36Q43.53 68.24 42.49 68.24L42.49 68.24Q41.21 68.24 39.24 68.36L39.24 68.36Q37.38 68.47 36.40 68.47L36.40 68.47Q36.17 68.47 36.17 68.13Q36.17 67.78 36.40 67.78L36.40 67.78Q38.55 67.78 39.53 67.37Q40.52 66.97 40.52 65.98L40.52 65.98Q40.52 65.17 39.76 63.48L39.76 63.48L34.60 52.52L20.80 52.52L17.14 61.11Q16.33 63.08 16.33 64.30L16.33 64.30Q16.33 66.09 17.75 66.94Q19.17 67.78 22.01 67.78L22.01 67.78Q22.30 67.78 22.30 68.13Q22.30 68.47 22.01 68.47L22.01 68.47Q20.97 68.47 19.00 68.36L19.00 68.36Q16.79 68.24 15.17 68.24L15.17 68.24Q13.66 68.24 11.69 68.36L11.69 68.36Q9.95 68.47 8.79 68.47L8.79 68.47Q8.50 68.47 8.50 68.13Q8.50 67.78 8.79 67.78L8.79 67.78Q10.41 67.78 11.55 67.17Q12.68 66.56 13.69 65.02Q14.71 63.48 15.92 60.59L15.92 60.59L28.16 31.70Q28.28 31.53 28.57 31.53Q28.86 31.53 28.92 31.70L28.92 31.70L42.60 60.53Q44.58 64.82 45.97 66.30Q47.36 67.78 49.27 67.78L49.27 67.78ZM27.29 37.04L21.26 51.36L34.08 51.36L27.29 37.04ZM91.33 67.78Q91.50 67.78 91.50 68.13Q91.50 68.47 91.33 68.47L91.33 68.47Q89.53 68.47 88.48 68.41L88.48 68.41L84.48 68.36L80.19 68.41Q79.20 68.47 77.46 68.47L77.46 68.47Q77.29 68.47 77.29 68.13Q77.29 67.78 77.46 67.78L77.46 67.78Q79.72 67.78 80.77 67.49Q81.81 67.20 82.19 66.36Q82.57 65.52 82.57 63.77L82.57 63.77L82.57 50.20L60.30 50.20L60.30 63.77Q60.30 65.52 60.67 66.36Q61.05 67.20 62.09 67.49Q63.14 67.78 65.40 67.78L65.40 67.78Q65.52 67.78 65.52 68.13Q65.52 68.47 65.40 68.47L65.40 68.47Q63.60 68.47 62.56 68.41L62.56 68.41L58.38 68.36L54.38 68.41Q53.34 68.47 51.48 68.47L51.48 68.47Q51.36 68.47 51.36 68.13Q51.36 67.78 51.48 67.78L51.48 67.78Q53.68 67.78 54.76 67.49Q55.83 67.20 56.21 66.36Q56.58 65.52 56.58 63.77L56.58 63.77L56.58 36.92Q56.58 35.18 56.21 34.37Q55.83 33.56 54.78 33.24Q53.74 32.92 51.54 32.92L51.54 32.92Q51.42 32.92 51.42 32.57Q51.42 32.22 51.54 32.22L51.54 32.22L54.49 32.28Q56.93 32.40 58.38 32.40L58.38 32.40Q60.06 32.40 62.61 32.28L62.61 32.28L65.40 32.22Q65.52 32.22 65.52 32.57Q65.52 32.92 65.40 32.92L65.40 32.92Q63.20 32.92 62.12 33.27Q61.05 33.61 60.67 34.46Q60.30 35.30 60.30 37.04L60.30 37.04L60.30 48.98L82.57 48.98L82.57 37.04Q82.57 35.30 82.19 34.46Q81.81 33.61 80.77 33.27Q79.72 32.92 77.46 32.92L77.46 32.92Q77.29 32.92 77.29 32.57Q77.29 32.22 77.46 32.22L77.46 32.22L80.19 32.28Q82.74 32.40 84.48 32.40L84.48 32.40Q86.05 32.40 88.48 32.28L88.48 32.28L91.33 32.22Q91.50 32.22 91.50 32.57Q91.50 32.92 91.33 32.92L91.33 32.92Q89.12 32.92 88.08 33.24Q87.03 33.56 86.66 34.37Q86.28 35.18 86.28 36.92L86.28 36.92L86.28 63.77Q86.28 65.52 86.66 66.36Q87.03 67.20 88.08 67.49Q89.12 67.78 91.33 67.78L91.33 67.78Z"></path></svg>