<?xml version="1.0" encoding="UTF-8"?><svg id="Layer_1" xmlns="http://www.w3.org/2000/svg" width="30" height="30" viewBox="0 0 30 30"><defs><style>.cls-1{fill:none;}.cls-2{fill:#11468c;}</style></defs><path class="cls-2" d="M15.5.5c7.72,0,14,6.28,14,14v1c0,7.72-6.28,14-14,14h-1C6.78,29.5.5,23.22.5,15.5v-1C.5,6.78,6.78.5,14.5.5h1M15.5,0h-1C6.49,0,0,6.49,0,14.5v1C0,23.51,6.49,30,14.5,30h1c8.01,0,14.5-6.49,14.5-14.5v-1C30,6.49,23.51,0,15.5,0h0Z"/><rect class="cls-1" x="2.99" y="9.15" width="24.51" height="30.35"/><path class="cls-2" d="M7.91,9.45h.27l4.64,10.65h-.33l-1.66-3.81h-5.58l-1.66,3.81h-.33l4.65-10.65ZM10.7,15.99l-2.65-6.1-2.66,6.1h5.32Z"/><path class="cls-2" d="M14.13,20.1v-.96h.3v.96h-.3Z"/><path class="cls-2" d="M24.95,9.45v10.65h-.3v-5.29h-7.4v5.29h-.3v-10.65h.3v5.05h7.4v-5.05h.3Z"/></svg>